<?xml version="1.0" encoding="UTF-8" standalone="no"?>
<svg
   id="Capa_1"
   enable-background="new 0 0 512 512"
   height="512"
   viewBox="0 0 512 512"
   width="512"
   version="1.1"
   sodipodi:docname="medical-report.svg"
   inkscape:version="1.1.2 (0a00cf5339, 2022-02-04)"
   xmlns:inkscape="http://www.inkscape.org/namespaces/inkscape"
   xmlns:sodipodi="http://sodipodi.sourceforge.net/DTD/sodipodi-0.dtd"
   xmlns="http://www.w3.org/2000/svg"
   xmlns:svg="http://www.w3.org/2000/svg">
  <defs
     id="defs9" />
  <sodipodi:namedview
     id="namedview7"
     pagecolor="#ffffff"
     bordercolor="#666666"
     borderopacity="1.0"
     inkscape:pageshadow="2"
     inkscape:pageopacity="0.0"
     inkscape:pagecheckerboard="0"
     showgrid="false"
     inkscape:zoom="1.0371314"
     inkscape:cx="188.98281"
     inkscape:cy="357.23537"
     inkscape:window-width="2016"
     inkscape:window-height="1201"
     inkscape:window-x="0"
     inkscape:window-y="25"
     inkscape:window-maximized="1"
     inkscape:current-layer="g4" />
  <g
     id="g4">
    <path
       d="m 248.44507,65.824145 h 23.99603 c 6.35993,0 12.1488,2.323657 16.32186,6.063425 4.20631,3.769557 6.79802,8.957352 6.79802,14.656906 V 103.3729 h 18.81264 c 6.36111,0 12.14879,2.35238 16.32187,6.09215 4.20631,3.73976 6.798,8.92755 6.798,14.65798 v 21.5034 c 0,5.69954 -2.59169,10.88734 -6.798,14.62711 -4.17308,3.73976 -9.96076,6.09216 -16.32187,6.09216 h -18.81264 v 16.82842 c 0,5.69954 -2.59171,10.88736 -6.79802,14.6569 -4.17306,3.73977 -9.96193,6.06236 -16.32186,6.06236 h -23.99603 c -6.35993,0 -12.1488,-2.32259 -16.35511,-6.06236 -4.17307,-3.76954 -6.76358,-8.95736 -6.76358,-14.6569 V 166.3457 h -18.81264 c -6.36112,0 -12.14998,-2.3524 -16.32306,-6.09216 -4.20631,-3.73977 -6.798,-8.92757 -6.798,-14.62711 v -21.5034 c 0,-5.73043 2.59169,-10.91822 6.798,-14.65798 4.17308,-3.73977 9.96194,-6.09215 16.32306,-6.09215 h 18.81264 V 86.544476 c 0,-5.699554 2.59169,-10.887349 6.76358,-14.656906 4.2075,-3.739768 9.99518,-6.063425 16.35511,-6.063425 z M 129.14397,237.03953 c -4.91389,0 -8.88513,-3.55889 -8.88513,-7.9317 0,-4.40262 3.97124,-7.96151 8.88513,-7.96151 h 262.59942 c 4.91389,0 8.88513,3.55889 8.88513,7.96151 0,4.37281 -3.97124,7.9317 -8.88513,7.9317 z m 0,221.79216 c -4.91389,0 -8.88513,-3.5589 -8.88513,-7.93171 0,-4.40367 3.97124,-7.9615 8.88513,-7.9615 h 141.61485 c 4.87946,0 8.8507,3.5589 8.8507,7.9615 0,4.37281 -3.97124,7.93171 -8.8507,7.93171 z m 0,-31.66726 c -4.91389,0 -8.88513,-3.5589 -8.88513,-7.96151 0,-4.37281 3.97124,-7.9317 8.88513,-7.9317 h 141.61485 c 4.87946,0 8.8507,3.55889 8.8507,7.9317 0,4.40368 -3.97124,7.96151 -8.8507,7.96151 z m 0,-31.69706 c -4.91389,0 -8.88513,-3.55889 -8.88513,-7.93171 0,-4.40366 3.97124,-7.96256 8.88513,-7.96256 h 141.61485 c 4.87946,0 8.8507,3.5589 8.8507,7.96256 0,4.37282 -3.97124,7.93171 -8.8507,7.93171 z m 0,-31.66726 c -4.91389,0 -8.88513,-3.5589 -8.88513,-7.96151 0,-4.40367 3.97124,-7.9615 8.88513,-7.9615 h 141.61485 c 4.87946,0 8.8507,3.5589 8.8507,7.9615 0,4.40368 -3.97124,7.96151 -8.8507,7.96151 z m 0,-31.69812 c -4.91389,0 -8.88513,-3.5589 -8.88513,-7.96152 0,-4.3728 3.97124,-7.93276 8.88513,-7.93276 h 141.61485 c 4.87946,0 8.8507,3.55889 8.8507,7.93276 0,4.40262 -3.97124,7.96152 -8.8507,7.96152 z m 0,-31.69707 c -4.91389,0 -8.88513,-3.5589 -8.88513,-7.93277 0,-4.40367 3.97124,-7.9615 8.88513,-7.9615 h 262.59942 c 4.91389,0 8.88513,3.5589 8.88513,7.9615 0,4.37387 -3.97124,7.93277 -8.88513,7.93277 z m 0,-31.66725 c -4.91389,0 -8.88513,-3.5589 -8.88513,-7.96152 0,-4.37281 3.97124,-7.93171 8.88513,-7.93171 h 262.59942 c 4.91389,0 8.88513,3.5589 8.88513,7.93171 0,4.40262 -3.97124,7.96152 -8.88513,7.96152 z M 93.97503,102.61856 h 37.38904 c 9.76011,0 18.6773,-3.58868 25.13932,-9.378676 6.46084,-5.791054 10.46651,-13.783411 10.46651,-22.558829 V 37.204017 Z M 176.66234,10 h 201.8222 v 0 h 33.31689 c 12.5192,0 23.89393,4.553686 32.13916,11.942785 8.24522,7.389101 13.36094,17.58276 13.36094,28.802064 v 36.161369 c 0,4.40367 -3.97243,7.961503 -8.88514,7.961503 -4.91389,0 -8.91837,-3.558897 -8.91837,-7.961503 V 50.744849 c 0,-6.815634 -3.09508,-13.029075 -8.14313,-17.522115 -5.18338,-4.674975 -12.18322,-7.328455 -19.55346,-7.328455 H 184.77341 v 44.786776 c 0,13.179087 -6.02394,25.152728 -15.68314,33.838785 -9.69244,8.65519 -23.0522,14.05365 -37.7262,14.05365 H 81.35491 v 340.6508 c 0,6.81564 3.129505,13.02908 8.177554,17.52318 5.014805,4.49411 11.946966,7.29866 19.553466,7.29866 h 302.7155 c 7.60531,0 14.53866,-2.80455 19.55346,-7.29866 5.04805,-4.4941 8.14313,-10.70648 8.14313,-17.52318 V 123.03674 c 0,-4.40368 4.00567,-7.96151 8.91837,-7.96151 4.91271,0 8.88514,3.5589 8.88514,7.96151 v 336.18649 c 0,11.2193 -5.11572,21.41297 -13.36094,28.80206 C 435.69536,495.41546 424.32063,500 411.80143,500 H 109.08593 C 96.56673,500 85.190809,495.41546 76.94677,488.02635 68.398805,480.36595 62,471.7666 62,460.93989 63.671638,261.29541 61.09572,257.47943 63.617881,111.27482 63.382812,109.01288 64.25779,106.69028 66.175147,104.94116 100.63651,74.088872 135.03138,43.144023 169.52598,12.321529 171.4469,10.602193 173.83558,10 176.66234,10 Z m 223.99943,347.34515 c 0,4.40367 -4.00568,7.9615 -8.91838,7.9615 -4.91271,0 -8.88395,-3.55889 -8.88395,-7.9615 0,-2.26194 -1.04238,-4.34303 -2.72585,-5.85063 -1.68348,-1.50868 -4.00449,-2.44282 -6.52851,-2.44282 h -49.74085 c -2.52402,0 -4.84622,0.93414 -6.5285,2.44282 -1.68229,1.5076 -2.72586,3.58869 -2.72586,5.85063 v 14.41646 c 0,2.26194 1.04357,4.34302 2.72586,5.85063 1.68228,1.50761 4.00448,2.44282 6.5285,2.44282 h 49.74085 c 7.43791,0 14.2015,2.71518 19.11539,7.1178 4.91389,4.37387 7.94248,10.43623 7.94248,17.10078 v 14.44625 c 0,6.66456 -3.02859,12.72692 -7.94248,17.13059 -4.91389,4.37281 -11.67748,7.11779 -19.11539,7.11779 h -15.95264 v 7.93171 c 0,4.40368 -4.00449,7.96151 -8.91838,7.96151 -4.91389,0 -8.91837,-3.5589 -8.91837,-7.96151 v -7.93171 h -15.95146 c -7.43673,0 -14.20149,-2.74498 -19.11538,-7.11779 -4.88065,-4.40367 -7.94249,-10.46603 -7.94249,-17.13059 0,-4.40366 4.00449,-7.99235 8.91838,-7.99235 4.91389,0 8.88394,3.58976 8.88394,7.99235 0,2.26195 1.04358,4.34304 2.72586,5.85065 1.68229,1.47781 4.00448,2.41302 6.5285,2.41302 h 49.74086 c 2.52402,0 4.84621,-0.93521 6.5285,-2.41302 1.68229,-1.50761 2.72585,-3.5887 2.72585,-5.85065 v -14.44625 c 0,-2.26194 -1.04238,-4.31322 -2.72585,-5.82083 -1.68348,-1.50868 -4.00448,-2.44282 -6.5285,-2.44282 h -49.73967 c -7.43673,0 -14.20149,-2.71413 -19.11538,-7.11779 -4.88065,-4.37389 -7.94249,-10.43518 -7.94249,-17.13059 v -14.41646 c 0,-6.66562 3.06184,-12.72691 7.94249,-17.13059 4.91389,-4.37281 11.67747,-7.11779 19.11538,-7.11779 h 15.95265 v -8.9563 c 0,-4.40366 4.00448,-7.96256 8.91837,-7.96256 4.91389,0 8.91838,3.5589 8.91838,7.96256 v 8.9563 h 15.95263 c 7.43792,0 14.2015,2.74498 19.1154,7.11779 4.91151,4.40368 7.94011,10.46603 7.94011,17.13059 z M 272.4411,81.779065 h -23.99603 c -1.44723,0 -2.79234,0.542613 -3.73499,1.41824 -0.97589,0.843708 -1.58138,2.050222 -1.58138,3.347171 v 24.820774 c 0,4.40368 -3.97123,7.99236 -8.91837,7.99236 h -27.69659 c -1.44722,0 -2.76029,0.51177 -3.73617,1.38739 -0.9759,0.87456 -1.58257,2.05129 -1.58257,3.37803 v 21.5034 c 0,1.29694 0.60548,2.47366 1.58257,3.34716 0.97588,0.87457 2.28895,1.41718 3.73617,1.41718 h 27.69659 c 4.94714,0 8.91837,3.5589 8.91837,7.9615 v 24.82185 c 0,1.29695 0.60549,2.50345 1.58138,3.37802 0.94265,0.84477 2.28895,1.38738 3.73499,1.38738 h 23.99603 c 1.44722,0 2.79233,-0.54367 3.73499,-1.38738 0.97589,-0.87457 1.58137,-2.08107 1.58137,-3.37802 v -24.82185 c 0,-4.40367 3.97124,-7.9615 8.91838,-7.9615 h 27.69778 c 1.44722,0 2.76028,-0.54261 3.73498,-1.41718 0.9759,-0.87456 1.58256,-2.05129 1.58256,-3.34716 v -21.5034 c 0,-1.32674 -0.60547,-2.50347 -1.58256,-3.37803 -0.97589,-0.87456 -2.28776,-1.38739 -3.73498,-1.38739 h -27.69778 c -4.94714,0 -8.91838,-3.58868 -8.91838,-7.99236 V 86.544476 c 0,-1.296949 -0.60548,-2.503463 -1.58137,-3.347171 -0.94147,-0.875627 -2.28777,-1.41824 -3.73499,-1.41824 z"
       id="path1666"
       sodipodi:nodetypes="sssscscsscscsssscscscsscscscssssssssssssssssssssssssssssssssssssssssssssssssssssssssscscsccsccssssssscscscscscsscssssscsscccssscscsccccsssscsscssssscsscscssscscssscsscsscssssscccssscscssscsssscsscssssssscssssc"
       style="stroke-width:1.12389;fill:#2FADDE" />
  </g>
</svg>
